<svg width="767" height="264" viewBox="0 0 767 264" fill="none" xmlns="http://www.w3.org/2000/svg">
<path fill-rule="evenodd" clip-rule="evenodd" d="M244.235 93.6225C244.235 93.6225 270.698 96.5427 272.423 101.705C274.148 106.868 256.928 127.177 256.928 127.177L244.235 93.6225Z" fill="#559A04"/>
<mask id="mask0_323_6338" style="mask-type:luminance" maskUnits="userSpaceOnUse" x="244" y="93" width="29" height="35">
<path fill-rule="evenodd" clip-rule="evenodd" d="M244.235 93.6225C244.235 93.6225 270.698 96.5427 272.423 101.705C274.148 106.868 256.928 127.177 256.928 127.177L244.235 93.6225Z" fill="white"/>
</mask>
<g mask="url(#mask0_323_6338)">
<path fill-rule="evenodd" clip-rule="evenodd" d="M238.239 98.4118C252.781 95.66 266.514 98.7165 277.563 102.766C263.415 91.4424 253.778 92.2556 242.817 89.5067L238.239 98.4118Z" fill="white"/>
<path fill-rule="evenodd" clip-rule="evenodd" d="M272.626 101.113C271.19 104.844 262.25 115.166 254.139 116.938L258.5 129.534C263.15 125.371 273.744 111.634 272.626 101.113Z" fill="#3B7202"/>
</g>
<path fill-rule="evenodd" clip-rule="evenodd" d="M257.058 124.59C257.058 124.59 283.071 130.26 284.247 135.575C285.422 140.889 266.174 159.288 266.174 159.288L257.058 124.59Z" fill="#559A04"/>
<mask id="mask1_323_6338" style="mask-type:luminance" maskUnits="userSpaceOnUse" x="257" y="124" width="28" height="36">
<path fill-rule="evenodd" clip-rule="evenodd" d="M257.058 124.59C257.058 124.59 283.071 130.26 284.247 135.575C285.422 140.889 266.174 159.288 266.174 159.288L257.058 124.59Z" fill="white"/>
</mask>
<g mask="url(#mask1_323_6338)">
<path fill-rule="evenodd" clip-rule="evenodd" d="M250.595 128.726C265.344 127.51 278.683 131.985 289.247 137.167C276.361 124.427 266.692 124.228 256.078 120.349L250.595 128.726Z" fill="white"/>
<path fill-rule="evenodd" clip-rule="evenodd" d="M284.511 135.007C282.692 138.567 272.722 147.898 264.47 148.813L267.491 161.796C272.551 158.141 284.522 145.587 284.511 135.007Z" fill="#3B7202"/>
</g>
<path fill-rule="evenodd" clip-rule="evenodd" d="M213 69C213 69 245.399 63.4131 249.203 69C253.007 74.5869 239.483 104.804 239.483 104.804L213 69Z" fill="#559A04"/>
<mask id="mask2_323_6338" style="mask-type:luminance" maskUnits="userSpaceOnUse" x="213" y="66" width="37" height="39">
<path fill-rule="evenodd" clip-rule="evenodd" d="M213 69C213 69 245.399 63.4131 249.203 69C253.007 74.5869 239.483 104.804 239.483 104.804L213 69Z" fill="white"/>
</mask>
<g mask="url(#mask2_323_6338)">
<path fill-rule="evenodd" clip-rule="evenodd" d="M208.313 76.9999C224.6 68.9999 241.902 67.9813 256.362 68.9999C235.761 60.6008 224.624 64.7346 210.71 65.1901L208.313 76.9999Z" fill="white"/>
<path fill-rule="evenodd" clip-rule="evenodd" d="M249.518 68.5C249.071 73.5 241.785 89.0535 232.522 94L244.86 99.8921C249.071 93.257 254.556 80.8117 249.518 68.5Z" fill="#3B7202"/>
</g>
<path fill-rule="evenodd" clip-rule="evenodd" d="M218.465 70.3867C218.465 70.3867 244.826 66 247.979 69C251.132 72 242.028 92.257 242.028 92.257L243.347 95.7469C243.347 95.7469 270.701 97.2607 271.867 102C273.032 106.739 257.465 122.979 257.465 122.979L258.5 127.047C258.5 127.047 283.612 132 283.612 136.641C283.612 141.282 265.655 157.078 265.655 157.078L275.151 164.42C275.151 164.42 290.876 143.748 290.876 136.641C290.876 129.534 270 122.157 270 122.157C270 122.157 281.385 104.747 280.073 98.5C278.761 92.2529 253.118 89.0534 253.118 89.0534C253.118 89.0534 258.258 65.3318 253.118 61C247.979 56.6682 209.933 62.9058 209.933 62.9058L218.465 70.3867Z" fill="#1F3C01"/>
<path fill-rule="evenodd" clip-rule="evenodd" d="M213 66.2065C247.32 84.6558 261.378 119.182 268.436 159.26L217.636 208.392L155 153.06L107.171 129.5C107.171 129.5 96.7293 131.244 92.4069 129.5C88.0845 127.756 71.2928 119.798 71.2928 119.798C65.2378 119.783 60.0917 121.267 59.4084 113.778C59.4084 113.778 56.1723 109.694 54.4129 108.226C52.6972 106.794 52.2016 99.528 52.2016 99.528L51.3323 89.5L64.3948 87.139L72.8434 93.2593H74.9167L82.4525 85.5053L85.8699 90.3365V94L97.8101 81.8437L109.401 89V93.2593L151.718 77.5479L213 66.2065Z" fill="#559A04"/>
<path fill-rule="evenodd" clip-rule="evenodd" d="M216.114 67.6802V70.387C244.527 85.5055 261.278 127.097 255.403 159.051L268.436 159.26C259.507 93.2573 216.114 67.6802 216.114 67.6802Z" fill="#3B7202"/>
<circle cx="184" cy="73" r="29" fill="#559A04"/>
<circle cx="142" cy="72" r="20" fill="#559A04"/>
<path fill-rule="evenodd" clip-rule="evenodd" d="M160.371 64.0813C156.925 58.0585 150.436 54 143 54C131.954 54 123 62.9543 123 74C123 76.813 123.581 79.4903 124.629 81.9187C122.956 78.9954 122 75.6094 122 72C122 60.9543 130.954 52 142 52C150.233 52 157.304 56.9743 160.371 64.0813Z" fill="white"/>
<path fill-rule="evenodd" clip-rule="evenodd" d="M150.261 149.891C150.261 149.891 139.608 171.419 132.638 183.703C125.668 195.988 109.838 219.3 125.238 225.729C140.638 232.158 176.503 222.645 176.503 222.645C168.826 212.704 163.051 201.594 148.959 195.594C158.55 186.374 166.031 176.114 165.699 162.001L150.261 149.891Z" fill="#559A04"/>
<mask id="mask3_323_6338" style="mask-type:luminance" maskUnits="userSpaceOnUse" x="118" y="149" width="59" height="79">
<path fill-rule="evenodd" clip-rule="evenodd" d="M150.261 149.891C150.261 149.891 139.608 171.419 132.638 183.703C125.668 195.988 109.838 219.3 125.238 225.729C140.638 232.158 176.503 222.645 176.503 222.645C168.826 212.704 163.051 201.594 148.959 195.594C158.55 186.374 166.031 176.114 165.699 162.001L150.261 149.891Z" fill="white"/>
</mask>
<g mask="url(#mask3_323_6338)">
<path fill-rule="evenodd" clip-rule="evenodd" d="M150.1 156.141C154.791 159.883 159.022 163.949 161.347 169.361C154.764 182.911 145.745 192.702 133.526 197.552C133.526 197.552 153.192 193.109 159.884 183.093C166.577 173.077 166.613 164.116 166.613 164.116L151.937 153.39L150.1 156.141Z" fill="#3B7202"/>
<path fill-rule="evenodd" clip-rule="evenodd" d="M175.563 216.779C175.563 216.779 118.788 197.522 120.857 212.922C122.927 228.322 143.973 232.883 155.907 230.606C167.842 228.329 177.934 224.118 177.934 224.118L175.563 216.779Z" fill="#3B7202"/>
</g>
<ellipse cx="137.803" cy="72" rx="7.66667" ry="11" fill="#203800"/>
<ellipse cx="136.894" cy="71.625" rx="3.48485" ry="4.375" fill="white"/>
<path fill-rule="evenodd" clip-rule="evenodd" d="M155.803 80.8072C155.767 80.17 155.749 79.5281 155.749 78.8819C155.749 60.5499 170.474 45.657 188.741 45.3857C187.199 45.132 185.615 45 184 45C167.984 45 155 57.9837 155 74C155 76.3444 155.278 78.6239 155.803 80.8072Z" fill="white"/>
<ellipse cx="178.894" cy="68.5" rx="11.1515" ry="15.5" fill="#203800"/>
<ellipse cx="178.894" cy="69" rx="5.57576" ry="7" fill="white"/>
<path fill-rule="evenodd" clip-rule="evenodd" d="M273.032 193.848C290.958 167.227 271.271 149.549 251.725 156.891C235.397 166.258 225.001 179.301 213 191.878C203.663 185.691 161.28 179.688 143.025 194.277C143.025 194.277 162.16 200.014 168.547 205.859C193.122 228.35 200.441 240.783 209.57 239.041C219.38 237.17 236.363 222.609 262.485 199.97C265.56 197.305 273.032 193.848 273.032 193.848Z" fill="#559A04"/>
<path fill-rule="evenodd" clip-rule="evenodd" d="M273.032 163.458C272.356 181.277 224.931 228.321 211.549 228.321C200.135 228.321 195.762 218.059 185.816 208.218C184.101 206.521 182.221 204.837 180.109 203.22C165.756 192.225 144.104 194.277 144.104 194.277C144.104 194.277 174.089 208.047 180.109 218.184C186.13 228.321 202.008 243.482 214.735 239.203C227.461 234.924 265.655 195.496 265.655 195.496C265.655 195.496 280.313 191.878 281.812 183.703C283.31 175.528 273.032 163.458 273.032 163.458Z" fill="#3B7202"/>
<path fill-rule="evenodd" clip-rule="evenodd" d="M168.766 89.0537C175.924 80.0821 185.636 77.5237 198.685 80.3228C189.065 80.8078 179.206 82.9339 168.766 89.0537Z" fill="#203800"/>
<path fill-rule="evenodd" clip-rule="evenodd" d="M187.329 84.1485C220.456 80.6421 235.996 130.764 231.519 154.714L230.319 167.937C230.319 167.937 224.259 177.795 210.349 180.959C196.439 184.122 170.405 169.585 170.405 169.585L151.8 151.776L107.171 129.5C107.171 129.5 98.8317 131.103 92.4069 129.5C85.9822 127.896 71.9583 118.687 71.9583 118.687C104.185 85.8417 176.575 132.908 187.329 84.1485Z" fill="white"/>
<path fill-rule="evenodd" clip-rule="evenodd" d="M81.5647 122.979C81.5647 122.979 83.5665 120.157 98.3823 116.644C113.198 113.131 160.411 120.157 160.411 120.157C160.411 120.157 119.857 109.202 101.401 111.489C82.9446 113.775 79.303 118.885 79.303 118.885L81.5647 122.979Z" fill="#CECC9A"/>
<path fill-rule="evenodd" clip-rule="evenodd" d="M106.79 126.143C150.1 131.157 166.639 167.133 213 132C214.531 151.856 204.754 161.727 193.428 171.539L218.759 157.555C220.932 170.154 208.341 179.539 204.18 189.106L175.967 181.724L163.287 159.051L145.767 151.426L105.363 134.326L106.79 126.143Z" fill="#CECC9A"/>
<path fill-rule="evenodd" clip-rule="evenodd" d="M78.0077 121.439C78.0077 121.439 87.513 114.023 111.02 114.023C134.527 114.023 161.712 125.141 178.894 121.439C196.076 117.737 189.842 94.7646 189.842 94.7646C175.244 133.957 117.221 92.3243 73.7747 118.035L78.0077 121.439Z" fill="#1F3C01"/>
<ellipse cx="228" cy="90.5" rx="4" ry="8.5" transform="rotate(-24 228 90.5)" fill="#3B7202"/>
<ellipse cx="148" cy="89.4998" rx="4" ry="8.5" transform="rotate(-99 148 89.4998)" fill="#3B7202"/>
<ellipse cx="163.973" cy="88.9166" rx="1.41176" ry="3" transform="rotate(-99 163.973 88.9166)" fill="#3B7202"/>
<ellipse cx="253.118" cy="184.286" rx="5.5" ry="11.5" transform="rotate(-126 253.118 184.286)" fill="#3B7202"/>
<ellipse cx="236.18" cy="188.775" rx="3" ry="4.5" transform="rotate(-126 236.18 188.775)" fill="#3B7202"/>
<ellipse cx="204.18" cy="204.775" rx="3" ry="4.5" transform="rotate(-61 204.18 204.775)" fill="#3B7202"/>
<ellipse cx="235" cy="108.5" rx="2.35294" ry="5" transform="rotate(-24 235 108.5)" fill="#3B7202"/>
<ellipse cx="247.965" cy="122.157" rx="3.05882" ry="6.5" transform="rotate(-24 247.965 122.157)" fill="#3B7202"/>
<path fill-rule="evenodd" clip-rule="evenodd" d="M213.052 79.8376C212.783 39.8658 163 36.9 156.202 66.1389C144.897 42.3924 111.647 59.4289 125.394 82.9201C131.394 81.3745 138.409 80.9778 146.043 82.2117C127.064 83.9524 109.792 92.1233 104.775 104.726C104.315 99.905 106.267 95.1947 110.058 91.2889L108.782 91.8702L106.79 85.9723C111.495 86.8619 114.371 85.2086 116.176 82.0667C106.575 58.8138 130.645 36.3864 156.202 50.7873C182.788 22.0665 228.338 48.6927 213.052 79.8376Z" fill="#1F3C01"/>
<path fill-rule="evenodd" clip-rule="evenodd" d="M109.051 98.2974C114.802 91.0054 123.092 86.1488 135.094 84.8519C125.711 87.1648 117.158 92.0428 109.051 98.2974Z" fill="white"/>
<path fill-rule="evenodd" clip-rule="evenodd" d="M220.889 103.921C225.374 113.767 226.071 121.308 225.371 131.465H228.892C230.059 137.611 228.57 145.087 227.499 151.563L229.462 149.893C232.15 154.665 230.902 163.784 229.462 169.36L242.276 162.49L236.18 161.705C237.876 156.718 238.961 150.605 237.853 146.026L233.28 147.525C233.28 147.525 235.212 142.154 233.28 134.326C231.348 126.498 228.892 122.963 228.892 122.963C228.892 117.063 225.304 109.124 220.889 103.921Z" fill="#CECC9A"/>
<path fill-rule="evenodd" clip-rule="evenodd" d="M145.767 151.426C188.772 164.472 213.219 143.429 218.416 113.778C222.978 163.953 176.175 162.55 166.614 164.116L171.434 169.012C191.375 169.01 210.268 167.009 221.519 152.39C214.21 173.339 193.92 175.181 181.707 173.952C202.711 198.924 221.231 163.529 247.979 160.361C235.761 167.814 225.98 178.45 217.685 193.002C199.851 181.866 176.782 184.145 157.392 188.728C157.392 188.728 168.426 177.542 166.614 169.012C164.801 160.482 145.767 151.426 145.767 151.426Z" fill="#223A00"/>
<path fill-rule="evenodd" clip-rule="evenodd" d="M156.321 190.047C181.048 184.474 211.508 187.105 230.536 211.898C226.384 189.399 202.616 179.931 171.292 179.249C170.845 179.24 170.51 179.255 170.06 179.249L156.321 190.047Z" fill="#223A00"/>
<path fill-rule="evenodd" clip-rule="evenodd" d="M268.437 177.841C268.437 177.841 267.004 184.043 265.064 187.753C263.123 191.462 225.474 236.005 213.432 237.466C201.391 238.927 186.13 220.292 186.13 220.292C186.13 220.292 143.885 231.676 129.599 224.602C115.313 217.528 123.087 195.427 135.012 184.222C146.938 173.017 151.937 153.39 151.937 153.39H141.931C141.931 153.39 144.445 167.978 127.889 181.26C111.334 194.542 106.216 221.642 123.986 232.701C134.814 239.439 177.886 231.149 177.886 231.149C180.761 230.217 183.51 230.205 186.13 231.149C186.13 231.149 198.851 245.367 212.452 245.601C232.761 245.601 263.738 200.699 263.738 200.699C267.557 201.507 270.861 201.268 274.002 200.699C294.36 192.501 293.719 144.238 251.494 156.775C278.557 153.546 281.581 180.119 271.885 192.19C271.885 186.996 271.885 183.076 268.437 177.841Z" fill="#1F3C01"/>
<path fill-rule="evenodd" clip-rule="evenodd" d="M133.526 197.552C154.551 196.341 162.517 211.156 172.747 224.117L186.13 220.292C180.844 213.46 158.257 184.675 133.526 197.552Z" fill="#1F3C01"/>
<path fill-rule="evenodd" clip-rule="evenodd" d="M164.955 160.361C164.447 172.315 159.126 185.547 144.104 194.277C145.754 194.144 147.508 193.267 148.979 193.001C150.731 192.685 152.161 192.951 153.662 192.455C167.546 187.863 170.774 175.807 164.955 160.361Z" fill="#223A00"/>
<path fill-rule="evenodd" clip-rule="evenodd" d="M243.347 163.458C231.111 170.692 222.813 183.656 218.465 192.225C225.62 182.166 233.442 172.382 243.347 163.458Z" fill="white"/>
<path fill-rule="evenodd" clip-rule="evenodd" d="M144.104 194.277C170.538 181.525 201.73 187.833 216.114 198.393C199.724 192.851 180.109 186.512 144.104 194.277Z" fill="white"/>
<path d="M384.408 92.9091H364.98C364.842 91.3016 364.475 89.8434 363.878 88.5344C363.304 87.2255 362.5 86.1003 361.467 85.1587C360.456 84.1942 359.228 83.4594 357.781 82.9542C356.334 82.426 354.692 82.1619 352.855 82.1619C349.64 82.1619 346.919 82.9427 344.691 84.5043C342.487 86.0658 340.81 88.3048 339.662 91.2212C338.537 94.1377 337.974 97.6397 337.974 101.727C337.974 106.045 338.549 109.661 339.697 112.578C340.868 115.471 342.556 117.653 344.76 119.123C346.965 120.569 349.617 121.293 352.717 121.293C354.486 121.293 356.07 121.074 357.471 120.638C358.872 120.179 360.089 119.524 361.122 118.675C362.156 117.825 362.994 116.803 363.637 115.609C364.303 114.392 364.75 113.026 364.98 111.51L384.408 111.648C384.178 114.633 383.34 117.676 381.893 120.776C380.446 123.853 378.391 126.701 375.727 129.319C373.086 131.913 369.814 134.003 365.91 135.588C362.006 137.172 357.471 137.964 352.304 137.964C345.828 137.964 340.018 136.575 334.874 133.797C329.753 131.018 325.7 126.93 322.715 121.534C319.752 116.137 318.271 109.535 318.271 101.727C318.271 93.8736 319.787 87.2599 322.818 81.8864C325.849 76.4898 329.937 72.4137 335.081 69.658C340.225 66.8794 345.966 65.4901 352.304 65.4901C356.759 65.4901 360.858 66.0986 364.601 67.3157C368.344 68.5328 371.628 70.3125 374.453 72.6548C377.277 74.9742 379.551 77.8332 381.273 81.2319C382.995 84.6306 384.04 88.523 384.408 92.9091ZM389.863 137V66.4545H420.314C425.549 66.4545 430.131 67.4076 434.058 69.3136C437.984 71.2196 441.039 73.9638 443.22 77.5462C445.402 81.1285 446.493 85.4228 446.493 90.429C446.493 95.4811 445.367 99.7409 443.117 103.208C440.889 106.676 437.755 109.294 433.713 111.062C429.694 112.83 424.998 113.714 419.625 113.714H401.437V98.8338H415.767C418.017 98.8338 419.935 98.5582 421.519 98.0071C423.127 97.433 424.355 96.5259 425.205 95.2859C426.078 94.0458 426.514 92.4268 426.514 90.429C426.514 88.4081 426.078 86.7662 425.205 85.5032C424.355 84.2172 423.127 83.2757 421.519 82.6786C419.935 82.0586 418.017 81.7486 415.767 81.7486H409.015V137H389.863ZM431.199 104.621L448.835 137H428.03L410.807 104.621H431.199ZM519.764 101.727C519.764 109.581 518.237 116.206 515.183 121.603C512.128 126.976 508.006 131.052 502.816 133.831C497.627 136.587 491.84 137.964 485.456 137.964C479.026 137.964 473.216 136.575 468.026 133.797C462.859 130.995 458.749 126.907 455.694 121.534C452.663 116.137 451.147 109.535 451.147 101.727C451.147 93.8736 452.663 87.2599 455.694 81.8864C458.749 76.4898 462.859 72.4137 468.026 69.658C473.216 66.8794 479.026 65.4901 485.456 65.4901C491.84 65.4901 497.627 66.8794 502.816 69.658C508.006 72.4137 512.128 76.4898 515.183 81.8864C518.237 87.2599 519.764 93.8736 519.764 101.727ZM500.061 101.727C500.061 97.5019 499.498 93.9425 498.373 91.049C497.271 88.1326 495.629 85.928 493.447 84.4354C491.289 82.9197 488.625 82.1619 485.456 82.1619C482.287 82.1619 479.611 82.9197 477.43 84.4354C475.271 85.928 473.629 88.1326 472.504 91.049C471.402 93.9425 470.851 97.5019 470.851 101.727C470.851 105.953 471.402 109.524 472.504 112.44C473.629 115.333 475.271 117.538 477.43 119.054C479.611 120.546 482.287 121.293 485.456 121.293C488.625 121.293 491.289 120.546 493.447 119.054C495.629 117.538 497.271 115.333 498.373 112.44C499.498 109.524 500.061 105.953 500.061 101.727ZM591.253 92.9091H571.825C571.687 91.3016 571.32 89.8434 570.723 88.5344C570.149 87.2255 569.345 86.1003 568.312 85.1587C567.301 84.1942 566.073 83.4594 564.626 82.9542C563.179 82.426 561.537 82.1619 559.7 82.1619C556.485 82.1619 553.764 82.9427 551.536 84.5043C549.332 86.0658 547.655 88.3048 546.507 91.2212C545.382 94.1377 544.819 97.6397 544.819 101.727C544.819 106.045 545.393 109.661 546.542 112.578C547.713 115.471 549.401 117.653 551.605 119.123C553.81 120.569 556.462 121.293 559.562 121.293C561.33 121.293 562.915 121.074 564.316 120.638C565.717 120.179 566.934 119.524 567.967 118.675C569 117.825 569.839 116.803 570.482 115.609C571.148 114.392 571.595 113.026 571.825 111.51L591.253 111.648C591.023 114.633 590.185 117.676 588.738 120.776C587.291 123.853 585.236 126.701 582.572 129.319C579.931 131.913 576.659 134.003 572.755 135.588C568.851 137.172 564.316 137.964 559.149 137.964C552.673 137.964 546.863 136.575 541.719 133.797C536.598 131.018 532.545 126.93 529.56 121.534C526.597 116.137 525.116 109.535 525.116 101.727C525.116 93.8736 526.632 87.2599 529.663 81.8864C532.694 76.4898 536.782 72.4137 541.926 69.658C547.07 66.8794 552.811 65.4901 559.149 65.4901C563.604 65.4901 567.703 66.0986 571.446 67.3157C575.189 68.5328 578.473 70.3125 581.298 72.6548C584.122 74.9742 586.396 77.8332 588.118 81.2319C589.84 84.6306 590.885 88.523 591.253 92.9091ZM665.049 101.727C665.049 109.581 663.522 116.206 660.468 121.603C657.414 126.976 653.292 131.052 648.102 133.831C642.912 136.587 637.125 137.964 630.741 137.964C624.311 137.964 618.501 136.575 613.311 133.797C608.144 130.995 604.034 126.907 600.98 121.534C597.948 116.137 596.433 109.535 596.433 101.727C596.433 93.8736 597.948 87.2599 600.98 81.8864C604.034 76.4898 608.144 72.4137 613.311 69.658C618.501 66.8794 624.311 65.4901 630.741 65.4901C637.125 65.4901 642.912 66.8794 648.102 69.658C653.292 72.4137 657.414 76.4898 660.468 81.8864C663.522 87.2599 665.049 93.8736 665.049 101.727ZM645.346 101.727C645.346 97.5019 644.783 93.9425 643.658 91.049C642.556 88.1326 640.914 85.928 638.732 84.4354C636.574 82.9197 633.91 82.1619 630.741 82.1619C627.572 82.1619 624.897 82.9197 622.715 84.4354C620.556 85.928 618.914 88.1326 617.789 91.049C616.687 93.9425 616.136 97.5019 616.136 101.727C616.136 105.953 616.687 109.524 617.789 112.44C618.914 115.333 620.556 117.538 622.715 119.054C624.897 120.546 627.572 121.293 630.741 121.293C633.91 121.293 636.574 120.546 638.732 119.054C640.914 117.538 642.556 115.333 643.658 112.44C644.783 109.524 645.346 105.953 645.346 101.727Z" fill="#78C906"/>
<path d="M349.593 179.229C349.418 178.513 349.141 177.886 348.763 177.346C348.385 176.793 347.913 176.327 347.346 175.95C346.793 175.558 346.145 175.268 345.403 175.079C344.674 174.877 343.871 174.776 342.994 174.776C341.105 174.776 339.493 175.228 338.157 176.132C336.834 177.036 335.822 178.338 335.12 180.038C334.432 181.739 334.088 183.79 334.088 186.192C334.088 188.621 334.419 190.699 335.08 192.426C335.741 194.153 336.726 195.476 338.035 196.393C339.344 197.311 340.97 197.77 342.913 197.77C344.627 197.77 346.051 197.52 347.184 197.021C348.331 196.522 349.188 195.813 349.755 194.896C350.322 193.978 350.605 192.898 350.605 191.657L352.548 191.859H343.075V183.844H361.455V189.592C361.455 193.371 360.652 196.603 359.046 199.288C357.453 201.96 355.254 204.011 352.447 205.441C349.654 206.858 346.449 207.567 342.832 207.567C338.798 207.567 335.255 206.71 332.206 204.996C329.156 203.282 326.774 200.84 325.06 197.669C323.36 194.498 322.51 190.726 322.51 186.354C322.51 182.926 323.029 179.89 324.069 177.245C325.121 174.6 326.578 172.367 328.441 170.545C330.303 168.71 332.455 167.327 334.898 166.396C337.34 165.451 339.958 164.979 342.751 164.979C345.207 164.979 347.488 165.33 349.593 166.031C351.712 166.719 353.581 167.705 355.2 168.987C356.833 170.255 358.148 171.76 359.147 173.5C360.146 175.241 360.753 177.151 360.969 179.229H349.593ZM397.69 207H385.545L399.229 165.545H414.612L428.295 207H416.151L407.082 176.962H406.759L397.69 207ZM395.423 190.645H418.256V199.065H395.423V190.645ZM453.788 165.545H467.795L477.43 189.026H477.916L487.551 165.545H501.558V207H490.547V183.034H490.223L480.993 206.676H474.353L465.123 182.872H464.799V207H453.788V165.545ZM539.646 165.545V207H528.392V165.545H539.646ZM602.347 165.545V207H592.955L577.977 185.22H577.734V207H566.479V165.545H576.033L590.769 187.244H591.093V165.545H602.347ZM656.092 179.229C655.917 178.513 655.64 177.886 655.262 177.346C654.884 176.793 654.412 176.327 653.845 175.95C653.292 175.558 652.644 175.268 651.902 175.079C651.173 174.877 650.37 174.776 649.493 174.776C647.604 174.776 645.992 175.228 644.656 176.132C643.333 177.036 642.321 178.338 641.619 180.038C640.931 181.739 640.587 183.79 640.587 186.192C640.587 188.621 640.918 190.699 641.579 192.426C642.24 194.153 643.225 195.476 644.534 196.393C645.843 197.311 647.469 197.77 649.412 197.77C651.126 197.77 652.55 197.52 653.683 197.021C654.83 196.522 655.687 195.813 656.254 194.896C656.821 193.978 657.104 192.898 657.104 191.657L659.047 191.859H649.574V183.844H667.954V189.592C667.954 193.371 667.151 196.603 665.545 199.288C663.953 201.96 661.753 204.011 658.946 205.441C656.153 206.858 652.948 207.567 649.331 207.567C645.297 207.567 641.754 206.71 638.705 204.996C635.655 203.282 633.273 200.84 631.559 197.669C629.859 194.498 629.009 190.726 629.009 186.354C629.009 182.926 629.528 179.89 630.568 177.245C631.62 174.6 633.078 172.367 634.94 170.545C636.802 168.71 638.954 167.327 641.397 166.396C643.839 165.451 646.457 164.979 649.25 164.979C651.706 164.979 653.987 165.33 656.092 166.031C658.211 166.719 660.08 167.705 661.699 168.987C663.332 170.255 664.647 171.76 665.646 173.5C666.645 175.241 667.252 177.151 667.468 179.229H656.092Z" fill="#559A04"/>
<path fill-rule="evenodd" clip-rule="evenodd" d="M227.461 229.624C231.373 224.493 233.813 219.129 235.737 213.685C236.132 217.663 236.188 221.522 234.971 224.939L227.461 229.624Z" fill="#1F3C01"/>
<path fill-rule="evenodd" clip-rule="evenodd" d="M255.763 127.047C255.125 131.936 252.916 136.016 250.595 140.038C253.754 137.749 256.871 135.429 258.5 132L255.763 127.047Z" fill="#3B7202"/>
<path fill-rule="evenodd" clip-rule="evenodd" d="M94.9646 129.5C99.8598 126.451 106.294 115.686 115.894 125.584C112.447 125.063 108.583 126.451 107.345 129.5C125.716 132.366 140.691 143.178 155.908 153.984L144.944 156.141C132.523 144.737 114.969 138.643 99.9157 135.364L94.9646 129.5Z" fill="#1F3C01"/>
<path fill-rule="evenodd" clip-rule="evenodd" d="M63.2072 82.282C53.5961 79.9344 44.0007 87.1376 44.0007 98.1164C44.0007 109.095 56.0674 113.387 56.0674 113.387C56.0674 113.387 55.1175 120.223 60.3872 123.91C65.6568 127.597 73.7712 124.627 73.7712 124.627C73.7712 124.627 79.4396 133.14 85.0631 136.422C90.6866 139.705 99.9156 135.365 99.9156 135.365L94.9645 129.5C88.3471 132.565 78.7554 116.732 78.7554 116.732C78.7554 116.732 69.6919 119.963 65.6568 116.732C61.6217 113.501 61.1615 107.491 61.1615 107.491C61.1615 107.491 47.5539 99.3553 56.0674 91.9056C64.581 84.4558 73.2009 95.2073 73.2009 95.2073C73.2009 95.2073 72.8183 84.6297 63.2072 82.282Z" fill="#1F3C01"/>
<path fill-rule="evenodd" clip-rule="evenodd" d="M71.9583 97.3573C78.0566 89.8759 85.3897 82.775 85.3095 95.5141C91.4336 68.9062 74.7104 81.4276 71.9583 97.3573Z" fill="#1F3C01"/>
<path fill-rule="evenodd" clip-rule="evenodd" d="M105.363 103C105.363 103 107.129 92.272 107.129 89.8661C107.129 87.4603 100.324 82.5389 98.4937 83.2634C93.9416 84.3575 85.3093 95.5142 85.3093 95.5142V82.4556C85.3093 82.4556 95.1914 72.5472 99.5965 74.3279C104.002 76.1087 111.026 81.4031 111.026 84.3443C111.026 85.3362 111.992 88.6992 111.026 91.8703C110.082 94.9677 105.363 103 105.363 103Z" fill="#1F3C01"/>
<path fill-rule="evenodd" clip-rule="evenodd" d="M125.989 201.702C132.768 196.152 148.276 200.761 156.321 204.775C150.436 199.994 138.664 191.215 125.989 201.702Z" fill="white"/>
<path fill-rule="evenodd" clip-rule="evenodd" d="M150.1 160.361C146.058 170.884 140.787 177.599 135.319 183.703C143.386 179.214 147.798 170.894 150.1 160.361Z" fill="white"/>
<path fill-rule="evenodd" clip-rule="evenodd" d="M90.0359 99.692C97.1685 98.2982 98.6132 94.3502 99.6242 90.2075C101.821 97.5183 99.9997 101.737 90.0359 99.692Z" fill="#1F3C01"/>
<path fill-rule="evenodd" clip-rule="evenodd" d="M56.624 101.358C66.3006 96.9775 66.3006 102.841 66.4318 107C65.3175 102.59 62.1299 99.7318 56.624 101.358Z" fill="#1F3C01"/>
<path fill-rule="evenodd" clip-rule="evenodd" d="M90.0359 90.2073C93.5009 86.0873 96.6781 78.8415 104.185 85.8419C99.2955 82.6664 94.64 85.7486 90.0359 90.2073Z" fill="white"/>
<path fill-rule="evenodd" clip-rule="evenodd" d="M75.9717 93.0787C79.303 89.9034 82.9948 88.5879 85.0155 91.8706C84.2687 84.2696 78.6449 89.5863 75.9717 93.0787Z" fill="white"/>
</svg>
